# xmcd CD database file
#
# Track frame offsets:
#	150
#	12558
#	24769
#	38733
#	50380
#	63877
#	77071
#	87626
#	101094
#	114802
#
# Disc length: 1677 seconds
#
# Revision: 0
# Processed by: cddbd v1.5.1PL2 Copyright (c) Steve Scherf et al.
# Submitted via: CDex 1.70beta2
#
DISCID=70068b0a
DTITLE=Roy Rogers - The Rhythm of the Range
DYEAR=2004
DGENRE=Country
TTITLE0=I'm an Old Cowhand
TTITLE1=On the Old Spanish Trail
TTITLE2=Listen to the Rhythm of the Range
TTITLE3=Chapel in the Valley
TTITLE4=Rock Me to Sleep in My Saddle
TTITLE5=Cowboy Night Herd Song
TTITLE6=You Waited Too Long
TTITLE7=Moonlight on the Prairie
TTITLE8=The Hills of Old Wyomin'
TTITLE9=Hadie Brown
EXTD=YEAR: 2004
EXTT0=
EXTT1=
EXTT2=
EXTT3=
EXTT4=
EXTT5=
EXTT6=
EXTT7=
EXTT8=
EXTT9=
PLAYORDER=
